<svg xmlns="http://www.w3.org/2000/svg" xmlns:xlink="http://www.w3.org/1999/xlink" width="500" zoomAndPan="magnify" viewBox="0 0 375 374.999991" height="500" preserveAspectRatio="xMidYMid meet" version="1.0"><defs><clipPath id="a3a27457d1"><path d="M 37.5 80.25 L 336.75 80.25 L 336.75 294.75 L 37.5 294.75 Z M 37.5 80.25 " clip-rule="nonzero"/></clipPath></defs><rect x="-37.5" width="450" fill="#ffffff" y="-37.499999" height="449.999989" fill-opacity="1"/><rect x="-37.5" width="450" fill="#ffffff" y="-37.499999" height="449.999989" fill-opacity="1"/><g clip-path="url(#a3a27457d1)"><path fill="#cb6ce6" d="M 70.785156 238.851562 L 70.785156 98.601562 C 70.785156 88.660156 78.355469 80.484375 87.84375 80.484375 L 283.34375 80.484375 C 292.828125 80.484375 300.398438 88.660156 300.398438 98.601562 L 300.398438 238.851562 C 300.398438 241.164062 298.539062 243.035156 296.238281 243.035156 L 74.945312 243.035156 C 72.648438 243.035156 70.785156 241.164062 70.785156 238.851562 Z M 37.5 254.015625 C 37.5 251.703125 39.363281 249.832031 41.660156 249.832031 L 332.769531 249.832031 C 335.066406 249.832031 336.929688 251.703125 336.929688 254.015625 L 336.929688 273.132812 C 336.929688 284.6875 329.484375 294.511719 319.746094 294.511719 L 54.683594 294.511719 C 44.941406 294.511719 37.5 284.6875 37.5 273.132812 Z M 166.472656 270.75 C 160.925781 270.75 160.925781 279.117188 166.472656 279.117188 L 209.867188 279.117188 C 215.414062 279.117188 215.414062 270.75 209.867188 270.75 Z M 163.582031 193.683594 L 163.582031 186.820312 C 163.582031 186.074219 163.207031 185.5625 162.460938 185.28125 L 115.269531 163.996094 C 114.707031 163.714844 114.707031 163.433594 115.269531 163.15625 L 162.460938 141.871094 C 163.207031 141.589844 163.582031 141.074219 163.582031 140.328125 L 163.582031 133.464844 C 163.582031 132.625 163.207031 132.207031 162.460938 132.207031 L 161.902344 132.347656 L 105.464844 158.675781 C 104.8125 159.046875 104.484375 159.558594 104.484375 160.214844 L 104.484375 166.9375 C 104.484375 167.589844 104.8125 168.101562 105.464844 168.476562 L 161.902344 194.804688 C 162.367188 194.992188 162.765625 194.96875 163.09375 194.734375 C 163.417969 194.5 163.582031 194.148438 163.582031 193.683594 Z M 166.382812 211.1875 L 173.382812 211.1875 C 174.222656 211.1875 174.785156 210.816406 175.066406 210.066406 L 206.015625 114.703125 C 206.292969 113.675781 205.921875 113.160156 204.894531 113.160156 L 197.890625 113.160156 C 197.050781 113.160156 196.492188 113.535156 196.210938 114.28125 L 165.261719 209.648438 C 164.984375 210.675781 165.355469 211.1875 166.382812 211.1875 Z M 212.035156 194.945312 L 212.59375 194.804688 L 269.03125 168.476562 C 269.683594 168.101562 270.011719 167.589844 270.011719 166.9375 L 270.011719 160.214844 C 270.011719 159.558594 269.683594 159.046875 269.03125 158.675781 L 212.59375 132.347656 C 212.128906 132.160156 211.730469 132.183594 211.40625 132.417969 C 211.078125 132.648438 210.914062 133 210.914062 133.464844 L 210.914062 140.328125 C 210.914062 141.074219 211.289062 141.589844 212.035156 141.871094 L 259.226562 163.15625 C 259.789062 163.433594 259.789062 163.714844 259.226562 163.996094 L 212.035156 185.28125 C 211.289062 185.5625 210.914062 186.074219 210.914062 186.820312 L 210.914062 193.683594 C 210.914062 194.523438 211.289062 194.945312 212.035156 194.945312 Z M 212.035156 194.945312 " fill-opacity="1" fill-rule="nonzero"/></g></svg>