<svg xmlns="http://www.w3.org/2000/svg" xmlns:xlink="http://www.w3.org/1999/xlink" width="500" zoomAndPan="magnify" viewBox="0 0 375 374.999991" height="500" preserveAspectRatio="xMidYMid meet" version="1.0"><defs><clipPath id="51a2753afa"><path d="M 55.636719 37.5 L 319.636719 37.5 L 319.636719 332 L 55.636719 332 Z M 55.636719 37.5 " clip-rule="nonzero"/></clipPath></defs><rect x="-37.5" width="450" fill="#ffffff" y="-37.499999" height="449.999989" fill-opacity="1"/><rect x="-37.5" width="450" fill="#ffffff" y="-37.499999" height="449.999989" fill-opacity="1"/><g clip-path="url(#51a2753afa)"><path fill="#cb6ce6" d="M 311.980469 198.074219 C 311.644531 198.09375 311.300781 198.082031 310.960938 198.082031 C 286.300781 198.085938 261.640625 198.089844 236.980469 198.09375 C 236.386719 198.09375 235.796875 198.082031 234.972656 198.074219 C 235.195312 197.585938 235.289062 197.339844 235.414062 197.109375 C 248.222656 172.871094 261.03125 148.632812 273.871094 124.335938 C 274.316406 124.585938 274.433594 124.992188 274.609375 125.328125 C 276.996094 129.855469 279.371094 134.398438 281.753906 138.933594 C 291.800781 158.078125 301.847656 177.226562 311.894531 196.375 C 312.140625 196.847656 312.371094 197.332031 312.667969 197.925781 C 312.359375 197.996094 312.171875 198.0625 311.980469 198.074219 Z M 139.800781 197.371094 C 139.875 197.523438 139.910156 197.695312 139.953125 197.839844 C 139.839844 197.9375 139.777344 198.035156 139.714844 198.035156 C 114.15625 198.050781 88.605469 198.0625 63.046875 198.070312 C 62.890625 198.070312 62.734375 198 62.554688 197.957031 C 62.574219 197.773438 62.558594 197.625 62.609375 197.515625 C 63.183594 196.207031 100.574219 125.152344 101.097656 124.382812 C 101.824219 125.386719 138.15625 193.933594 139.800781 197.371094 Z M 316.164062 197.925781 C 303.507812 173.796875 290.84375 149.660156 278.1875 125.523438 C 278.128906 125.414062 278.121094 125.269531 278.074219 125.074219 C 278.390625 125.074219 278.675781 125.042969 278.949219 125.078125 C 280.386719 125.273438 281.816406 125.511719 283.253906 125.691406 C 285.640625 125.996094 288.023438 125.882812 290.390625 125.503906 C 294.222656 124.882812 297.808594 123.46875 301.160156 121.355469 C 301.449219 121.171875 301.75 121.011719 302.011719 120.859375 C 302.503906 121.097656 302.925781 121.320312 303.359375 121.503906 C 310.449219 124.542969 317.738281 118.136719 316.660156 110.203125 C 316.070312 105.875 313.789062 102.90625 309.96875 101.574219 C 306.148438 100.25 302.710938 101.257812 299.894531 104.375 C 297.917969 106.566406 297.09375 109.285156 297.203125 112.34375 C 297.21875 112.789062 297.203125 113.238281 297.203125 113.738281 C 296.234375 114.019531 295.261719 114.113281 294.292969 114.179688 C 290.144531 114.472656 286.035156 114.136719 281.960938 113.25 C 276.308594 112.015625 270.84375 110.125 265.523438 107.707031 C 261.238281 105.761719 257.121094 103.433594 253.019531 101.074219 C 249.066406 98.808594 245.144531 96.484375 241.101562 94.398438 C 233.503906 90.488281 225.609375 87.695312 217.179688 86.917969 C 212.609375 86.5 208.074219 86.664062 203.585938 87.746094 C 200.585938 88.464844 197.648438 89.402344 194.785156 90.605469 C 194.441406 90.75 194.113281 91.035156 193.699219 90.871094 C 193.460938 89.558594 193.316406 81.578125 193.515625 80.203125 C 193.898438 79.886719 194.308594 79.554688 194.714844 79.21875 C 196.949219 77.359375 199.074219 75.363281 201.042969 73.175781 C 202.234375 71.855469 203.378906 70.480469 204.277344 68.898438 C 204.746094 68.078125 205.171875 67.210938 205.480469 66.3125 C 206.238281 64.136719 205.84375 62.132812 204.535156 60.324219 C 203.921875 59.480469 203.164062 58.808594 202.34375 58.214844 C 201.167969 57.363281 199.890625 56.738281 198.5625 56.222656 C 198.214844 56.085938 197.878906 55.921875 197.476562 55.742188 C 197.585938 55.453125 197.664062 55.25 197.746094 55.042969 C 199.050781 51.695312 198.816406 48.464844 197.105469 45.355469 C 196.238281 43.785156 195.074219 42.511719 193.757812 41.386719 C 191.867188 39.761719 189.605469 38.898438 187.546875 37.707031 C 186.085938 38.484375 184.683594 39.160156 183.34375 39.960938 C 181.027344 41.34375 179.089844 43.195312 177.785156 45.734375 C 176.28125 48.660156 176.085938 51.6875 177.246094 54.804688 C 177.355469 55.097656 177.460938 55.386719 177.597656 55.765625 C 177.144531 55.957031 176.761719 56.121094 176.371094 56.277344 C 174.96875 56.84375 173.621094 57.523438 172.402344 58.472656 C 171.597656 59.097656 170.875 59.808594 170.304688 60.6875 C 169.222656 62.351562 168.960938 64.167969 169.539062 66.089844 C 169.785156 66.914062 170.15625 67.710938 170.558594 68.46875 C 171.257812 69.796875 172.160156 70.972656 173.109375 72.097656 C 174.898438 74.21875 176.84375 76.148438 178.902344 77.953125 C 179.792969 78.734375 180.707031 79.492188 181.683594 80.324219 C 181.640625 83.703125 181.628906 87.117188 181.535156 90.53125 C 181.53125 90.652344 181.441406 90.773438 181.359375 90.972656 C 181.066406 90.878906 180.792969 90.796875 180.523438 90.695312 C 179.117188 90.167969 177.722656 89.59375 176.300781 89.113281 C 172.835938 87.941406 169.304688 87.082031 165.675781 86.8125 C 161.792969 86.527344 157.929688 86.769531 154.082031 87.40625 C 148.75 88.292969 143.621094 89.941406 138.640625 92.171875 C 134.621094 93.96875 130.734375 96.070312 126.898438 98.285156 C 122.308594 100.925781 117.761719 103.65625 113.046875 106.027344 C 105.710938 109.71875 98.109375 112.507812 90.082031 113.792969 C 86.863281 114.308594 83.628906 114.402344 80.394531 114.140625 C 79.558594 114.074219 78.695312 114.0625 77.855469 113.679688 C 77.855469 113.296875 77.863281 112.933594 77.855469 112.574219 C 77.828125 111.695312 77.886719 110.800781 77.75 109.945312 C 76.792969 103.90625 71.746094 100.496094 66.9375 101.113281 C 61.597656 101.800781 57.214844 107.347656 58.5625 113.964844 C 59.914062 120.585938 66.414062 124.070312 72.128906 121.328125 C 72.472656 121.167969 72.816406 121.007812 73.144531 120.855469 C 73.53125 121.101562 73.859375 121.3125 74.195312 121.515625 C 78.769531 124.328125 83.675781 125.820312 88.945312 125.84375 C 91.214844 125.855469 93.453125 125.566406 95.683594 125.175781 C 96.097656 125.101562 96.503906 124.914062 97.109375 125.148438 C 84.355469 149.457031 71.621094 173.726562 58.855469 198.042969 C 58.011719 198.054688 57.207031 198.058594 56.402344 198.089844 C 56.167969 198.097656 55.9375 198.191406 55.636719 198.261719 C 55.84375 198.871094 56.003906 199.394531 56.195312 199.902344 C 64.976562 223.261719 87.519531 236.707031 110.34375 231.988281 C 124.472656 229.0625 135.351562 220.75 143 207.511719 C 144.425781 205.042969 145.613281 202.429688 146.59375 199.714844 C 146.757812 199.257812 147.007812 198.804688 146.871094 198.226562 C 145.824219 197.917969 144.746094 198.246094 143.734375 198 C 143.007812 196.953125 104.453125 123.972656 104.070312 122.910156 C 104.296875 122.800781 104.519531 122.664062 104.753906 122.578125 C 110.050781 120.648438 115.171875 118.257812 120.273438 115.808594 C 125.492188 113.308594 130.6875 110.738281 135.9375 108.320312 C 142.726562 105.191406 149.683594 102.582031 156.945312 101.03125 C 161.65625 100.023438 166.398438 99.644531 171.175781 100.34375 C 174.402344 100.820312 177.503906 101.785156 180.453125 103.296875 C 180.75 103.449219 181.023438 103.660156 181.296875 103.839844 C 181.296875 104.554688 181.308594 105.203125 181.296875 105.847656 C 181.082031 118.1875 180.859375 130.523438 180.648438 142.863281 C 180.515625 150.859375 180.414062 158.855469 180.277344 166.851562 C 180.066406 179.238281 179.835938 191.625 179.628906 204.007812 C 179.492188 211.957031 179.390625 219.90625 179.257812 227.855469 C 179.042969 240.335938 178.8125 252.8125 178.601562 265.289062 C 178.472656 272.964844 178.367188 280.632812 178.242188 288.304688 C 178.234375 288.757812 178.316406 289.234375 178.027344 289.710938 C 177.773438 289.742188 177.488281 289.800781 177.199219 289.8125 C 170.472656 290.097656 163.746094 290.398438 157.019531 290.648438 C 155.382812 290.710938 153.8125 290.941406 152.292969 291.640625 C 151.457031 292.027344 150.703125 292.460938 150.03125 293.140625 C 145.183594 298.074219 140.304688 302.972656 135.457031 307.90625 C 134.890625 308.484375 134.324219 308.746094 133.535156 308.75 C 129.066406 308.761719 124.589844 308.847656 120.121094 308.882812 C 118.835938 308.890625 117.570312 308.988281 116.304688 309.199219 C 115.339844 309.359375 114.675781 309.808594 114.171875 310.730469 C 112.980469 312.914062 111.722656 315.0625 110.488281 317.222656 C 108.667969 320.402344 106.832031 323.570312 105.035156 326.765625 C 104.617188 327.507812 104.230469 328.300781 103.984375 329.125 C 103.59375 330.429688 104.070312 331.292969 105.285156 331.644531 C 105.8125 331.796875 106.371094 331.867188 106.921875 331.910156 C 107.515625 331.960938 108.113281 331.933594 108.710938 331.933594 C 128.863281 331.941406 149.015625 331.945312 169.167969 331.949219 C 183.863281 331.949219 198.5625 331.9375 213.261719 331.9375 C 230.941406 331.9375 248.625 331.9375 266.304688 331.933594 C 266.902344 331.933594 267.5 331.964844 268.09375 331.914062 C 268.683594 331.863281 269.289062 331.796875 269.855469 331.632812 C 271.011719 331.285156 271.417969 330.46875 271.132812 329.207031 C 270.921875 328.292969 270.488281 327.5 270.039062 326.714844 C 267.074219 321.53125 264.109375 316.347656 261.144531 311.164062 C 260.988281 310.890625 260.816406 310.621094 260.667969 310.34375 C 260.351562 309.734375 259.859375 309.390625 259.238281 309.300781 C 258.144531 309.144531 257.042969 308.933594 255.941406 308.910156 C 251.128906 308.820312 246.316406 308.773438 241.5 308.746094 C 240.773438 308.738281 240.167969 308.570312 239.691406 307.960938 C 239.582031 307.816406 239.449219 307.703125 239.320312 307.574219 C 234.519531 302.726562 229.722656 297.871094 224.914062 293.027344 C 224.574219 292.683594 224.226562 292.28125 223.8125 292.101562 C 222.238281 291.414062 220.675781 290.703125 218.914062 290.679688 C 216.058594 290.636719 213.207031 290.46875 210.355469 290.347656 C 206.140625 290.167969 201.929688 289.988281 197.714844 289.804688 C 197.46875 289.792969 197.230469 289.710938 196.925781 289.648438 C 196.90625 289.050781 196.875 288.5 196.867188 287.953125 C 196.664062 276.628906 196.460938 265.304688 196.269531 253.984375 C 196.007812 238.6875 195.75 223.386719 195.5 208.09375 C 195.292969 195.613281 195.105469 183.132812 194.898438 170.65625 C 194.652344 155.496094 194.390625 140.339844 194.136719 125.179688 C 194.027344 118.523438 193.914062 111.871094 193.808594 105.214844 C 193.800781 104.71875 193.691406 104.199219 193.925781 103.75 C 194.019531 103.671875 194.078125 103.605469 194.152344 103.5625 C 194.300781 103.46875 194.453125 103.386719 194.605469 103.308594 C 198.351562 101.394531 202.300781 100.351562 206.421875 100.066406 C 211.621094 99.707031 216.703125 100.542969 221.730469 101.886719 C 227.242188 103.359375 232.601562 105.335938 237.824219 107.726562 C 243.121094 110.152344 248.359375 112.714844 253.617188 115.238281 C 259.148438 117.886719 264.683594 120.523438 270.425781 122.613281 C 270.625 122.683594 270.808594 122.792969 271.109375 122.9375 C 270.769531 123.597656 270.507812 124.125 270.234375 124.640625 C 263.207031 137.949219 256.171875 151.257812 249.140625 164.566406 C 243.484375 175.269531 237.832031 185.972656 232.171875 196.671875 C 231.925781 197.144531 231.746094 197.683594 231.367188 197.992188 C 230.277344 198.261719 229.195312 197.875 228.183594 198.261719 C 228.460938 200.503906 231.09375 206.175781 233.8125 210.371094 C 238.296875 217.308594 243.992188 222.773438 250.886719 226.746094 C 257.703125 230.671875 264.980469 232.730469 272.691406 232.90625 C 280.71875 233.089844 288.339844 231.222656 295.519531 227.328125 C 302.460938 223.5625 308.222656 218.257812 312.886719 211.523438 C 315.421875 207.863281 318.890625 200.949219 319.332031 198.167969 C 318.300781 197.933594 317.21875 198.25 316.164062 197.925781 " fill-opacity="1" fill-rule="nonzero"/></g></svg>