<svg xmlns="http://www.w3.org/2000/svg" xmlns:xlink="http://www.w3.org/1999/xlink" width="500" zoomAndPan="magnify" viewBox="0 0 375 374.999991" height="500" preserveAspectRatio="xMidYMid meet" version="1.0"><defs><clipPath id="87764498fd"><path d="M 37.5 37.5 L 344.25 37.5 L 344.25 333 L 37.5 333 Z M 37.5 37.5 " clip-rule="nonzero"/></clipPath></defs><rect x="-37.5" width="450" fill="#ffffff" y="-37.499999" height="449.999989" fill-opacity="1"/><rect x="-37.5" width="450" fill="#ffffff" y="-37.499999" height="449.999989" fill-opacity="1"/><g clip-path="url(#87764498fd)"><path fill="#cb6ce6" d="M 185.730469 90.003906 C 172.261719 89.578125 159.355469 87.515625 147.285156 84.0625 C 147.011719 83.980469 146.726562 84.09375 146.582031 84.339844 C 138.871094 97.257812 133.179688 111.359375 129.886719 126.253906 C 129.75 126.882812 129.296875 130.671875 128.921875 133.742188 C 128.882812 134.058594 128.617188 134.289062 128.300781 134.285156 C 125.4375 134.261719 122.6875 134.785156 120.140625 135.785156 C 119.933594 135.863281 119.714844 135.835938 119.539062 135.703125 C 119.363281 135.570312 119.273438 135.371094 119.292969 135.148438 C 119.574219 132.136719 119.890625 128.675781 119.992188 128.148438 C 123.1875 111.625 129.144531 95.945312 137.402344 81.621094 C 137.496094 81.457031 137.511719 81.28125 137.449219 81.101562 C 137.382812 80.921875 137.257812 80.796875 137.078125 80.730469 C 128.417969 77.542969 120.316406 73.613281 112.917969 69.046875 C 112.667969 68.894531 112.359375 68.929688 112.152344 69.132812 C 111.402344 69.878906 110.660156 70.632812 109.925781 71.402344 C 91.484375 90.695312 79.277344 116.53125 76.742188 145.3125 C 76.734375 145.386719 76.738281 145.449219 76.757812 145.519531 L 84.457031 176.316406 C 85.839844 181.847656 90.535156 190.117188 94.089844 194.601562 L 94.542969 195.15625 C 94.570312 195.101562 94.597656 195.039062 94.625 194.980469 L 101.5625 199.914062 C 101.742188 200.039062 101.957031 200.066406 102.160156 199.980469 C 102.363281 199.898438 102.496094 199.726562 102.535156 199.511719 C 105.695312 180.597656 128.265625 171.140625 143.949219 183.339844 C 148.054688 186.53125 151.183594 190.917969 152.796875 195.957031 C 152.839844 196.085938 152.839844 196.203125 152.800781 196.332031 C 151.621094 200.089844 150.988281 204.082031 150.988281 208.214844 L 150.988281 225.191406 C 150.988281 225.378906 151.0625 225.539062 151.203125 225.660156 L 159.273438 232.558594 C 159.460938 232.71875 159.710938 232.753906 159.9375 232.648438 C 160.160156 232.542969 160.296875 232.332031 160.296875 232.085938 L 160.296875 208.214844 C 160.296875 191.34375 174.117188 177.527344 190.984375 177.527344 C 207.855469 177.527344 221.675781 191.34375 221.675781 208.214844 L 221.675781 232.085938 C 221.675781 232.332031 221.8125 232.542969 222.035156 232.648438 C 222.261719 232.753906 222.507812 232.71875 222.699219 232.558594 L 230.765625 225.660156 C 230.910156 225.539062 230.984375 225.378906 230.984375 225.191406 L 230.984375 208.214844 C 230.984375 204.082031 230.347656 200.089844 229.171875 196.332031 C 229.132812 196.203125 229.132812 196.085938 229.171875 195.957031 C 230.789062 190.917969 233.917969 186.53125 238.019531 183.339844 C 253.707031 171.140625 276.273438 180.597656 279.4375 199.511719 C 279.472656 199.726562 279.609375 199.898438 279.8125 199.980469 C 280.015625 200.066406 280.230469 200.039062 280.410156 199.914062 L 287.347656 194.980469 C 287.375 195.039062 287.402344 195.097656 287.429688 195.15625 L 287.878906 194.601562 C 291.4375 190.117188 296.132812 181.847656 297.515625 176.316406 L 305.214844 145.519531 C 305.230469 145.449219 305.238281 145.386719 305.230469 145.3125 C 302.695312 116.53125 290.488281 90.695312 272.046875 71.402344 C 271.3125 70.632812 270.570312 69.878906 269.816406 69.132812 C 269.609375 68.929688 269.300781 68.894531 269.054688 69.046875 C 261.65625 73.613281 253.554688 77.542969 244.894531 80.730469 C 244.714844 80.796875 244.589844 80.921875 244.523438 81.101562 C 244.457031 81.28125 244.476562 81.457031 244.570312 81.621094 C 252.828125 95.945312 258.785156 111.625 261.980469 128.148438 C 262.082031 128.671875 262.398438 132.136719 262.675781 135.148438 C 262.695312 135.371094 262.609375 135.570312 262.429688 135.703125 C 262.253906 135.835938 262.039062 135.867188 261.832031 135.785156 C 259.285156 134.785156 256.535156 134.261719 253.671875 134.285156 C 253.351562 134.289062 253.085938 134.054688 253.046875 133.742188 C 252.675781 130.671875 252.222656 126.882812 252.085938 126.253906 C 248.789062 111.359375 243.101562 97.257812 235.390625 84.339844 C 235.242188 84.09375 234.960938 83.980469 234.6875 84.0625 C 222.613281 87.515625 209.707031 89.578125 196.242188 90.003906 C 195.90625 90.015625 195.640625 90.289062 195.640625 90.625 L 195.640625 128.28125 C 195.640625 128.46875 195.566406 128.632812 195.421875 128.753906 C 195.277344 128.875 195.105469 128.921875 194.921875 128.894531 C 192.320312 128.472656 189.648438 128.472656 187.050781 128.894531 C 186.863281 128.921875 186.691406 128.875 186.550781 128.753906 C 186.40625 128.632812 186.332031 128.46875 186.332031 128.28125 L 186.332031 90.625 C 186.332031 90.289062 186.066406 90.015625 185.730469 90.003906 Z M 190.988281 168.214844 C 177.515625 168.214844 170.738281 151.855469 180.261719 142.328125 C 189.789062 132.804688 206.152344 139.582031 206.152344 153.050781 C 206.152344 161.425781 199.363281 168.214844 190.988281 168.214844 Z M 253.875 168.578125 C 242.777344 168.578125 237.195312 155.101562 245.042969 147.253906 C 252.890625 139.40625 266.367188 144.992188 266.367188 156.085938 C 266.367188 162.984375 260.773438 168.578125 253.875 168.578125 Z M 322.0625 116.507812 C 323.285156 111.621094 327.539062 108.300781 332.574219 108.300781 L 333.171875 108.300781 C 339.542969 108.300781 344.496094 113.683594 343.964844 120.035156 C 341.242188 152.710938 341.929688 206.695312 326.402344 234.449219 C 315.175781 254.523438 300.003906 261.464844 284.945312 277.828125 C 268.363281 295.84375 266.140625 303.949219 265.84375 322.75 C 265.757812 328.113281 261.367188 332.433594 256.003906 332.433594 C 235.871094 332.433594 215.734375 332.433594 195.601562 332.433594 C 195.257812 332.433594 194.980469 332.15625 194.980469 331.8125 C 194.980469 317.558594 194.980469 303.300781 194.980469 289.042969 C 194.980469 275.257812 200.640625 263.394531 211.355469 254.71875 L 257.40625 217.441406 C 262.640625 213.203125 270.335938 213.917969 274.714844 218.972656 C 274.71875 218.976562 274.722656 218.980469 274.726562 218.988281 C 276.132812 220.71875 276.71875 222.699219 276.492188 224.84375 C 276.230469 227.332031 275.164062 228.757812 273.371094 230.335938 C 273.363281 230.339844 273.355469 230.34375 273.351562 230.351562 L 233.316406 262.761719 C 231.328125 264.378906 231.027344 267.300781 232.640625 269.289062 C 234.257812 271.277344 237.183594 271.578125 239.171875 269.960938 L 279.492188 237.320312 C 286.816406 231.390625 287.960938 220.550781 282.011719 213.21875 C 281.910156 213.09375 281.804688 212.976562 281.695312 212.867188 L 281.703125 212.855469 L 281.632812 212.789062 L 293.675781 201.011719 C 300.242188 194.589844 304.320312 187.488281 306.546875 178.574219 Z M 196.636719 41.339844 C 209.289062 50.886719 220.339844 62.253906 229.335938 75.019531 C 229.457031 75.191406 229.484375 75.394531 229.414062 75.589844 C 229.339844 75.789062 229.191406 75.925781 228.988281 75.980469 C 218.683594 78.671875 207.703125 80.300781 196.28125 80.6875 C 196.109375 80.695312 195.957031 80.636719 195.832031 80.515625 C 195.703125 80.390625 195.640625 80.242188 195.640625 80.066406 L 195.640625 41.835938 C 195.640625 41.59375 195.769531 41.386719 195.984375 41.277344 C 196.203125 41.171875 196.441406 41.195312 196.636719 41.339844 Z M 261.511719 62.734375 C 254.773438 66.648438 247.429688 70.015625 239.605469 72.746094 C 239.332031 72.839844 239.042969 72.746094 238.882812 72.507812 C 230.433594 59.953125 220.144531 48.605469 208.371094 38.8125 C 208.152344 38.632812 208.082031 38.335938 208.203125 38.078125 C 208.320312 37.820312 208.585938 37.675781 208.867188 37.722656 C 228.339844 40.917969 246.394531 49.289062 261.59375 61.71875 C 261.753906 61.851562 261.835938 62.039062 261.820312 62.246094 C 261.804688 62.457031 261.695312 62.628906 261.511719 62.734375 Z M 128.097656 168.578125 C 121.199219 168.578125 115.605469 162.988281 115.605469 156.085938 C 115.605469 144.988281 129.082031 139.40625 136.929688 147.253906 C 144.777344 155.101562 139.195312 168.578125 128.097656 168.578125 Z M 59.910156 116.507812 L 75.425781 178.574219 C 77.652344 187.484375 81.730469 194.589844 88.296875 201.011719 L 100.339844 212.785156 L 100.269531 212.855469 L 100.277344 212.863281 C 100.167969 212.976562 100.0625 213.09375 99.960938 213.21875 C 94.011719 220.546875 95.160156 231.390625 102.480469 237.320312 L 142.804688 269.960938 C 144.789062 271.578125 147.714844 271.277344 149.332031 269.289062 C 150.949219 267.300781 150.644531 264.375 148.65625 262.761719 L 108.621094 230.351562 C 108.617188 230.34375 108.609375 230.339844 108.601562 230.335938 C 106.808594 228.757812 105.742188 227.332031 105.480469 224.839844 C 105.253906 222.699219 105.839844 220.714844 107.246094 218.984375 C 107.25 218.980469 107.253906 218.976562 107.257812 218.972656 C 111.636719 213.917969 119.332031 213.203125 124.566406 217.441406 L 170.617188 254.71875 C 181.332031 263.394531 186.992188 275.257812 186.992188 289.042969 C 186.992188 303.296875 186.992188 317.554688 186.992188 331.8125 C 186.992188 332.15625 186.714844 332.433594 186.371094 332.433594 C 166.238281 332.433594 146.101562 332.433594 125.96875 332.433594 C 120.605469 332.433594 116.214844 328.113281 116.128906 322.75 C 115.832031 303.949219 113.609375 295.84375 97.027344 277.828125 C 81.96875 261.464844 66.796875 254.519531 55.570312 234.449219 C 40.042969 206.695312 40.730469 152.710938 38.007812 120.03125 C 37.476562 113.679688 42.429688 108.300781 48.800781 108.300781 L 49.398438 108.300781 C 54.433594 108.300781 58.6875 111.621094 59.910156 116.507812 Z M 185.335938 41.339844 C 185.527344 41.195312 185.769531 41.171875 185.988281 41.277344 C 186.203125 41.386719 186.332031 41.59375 186.332031 41.835938 L 186.332031 80.066406 C 186.332031 80.242188 186.265625 80.394531 186.140625 80.515625 C 186.015625 80.636719 185.863281 80.695312 185.691406 80.6875 C 174.269531 80.300781 163.289062 78.671875 152.984375 75.980469 C 152.78125 75.925781 152.632812 75.789062 152.558594 75.59375 C 152.488281 75.394531 152.515625 75.191406 152.636719 75.023438 C 161.632812 62.253906 172.683594 50.886719 185.335938 41.339844 Z M 120.460938 62.734375 C 120.277344 62.628906 120.171875 62.457031 120.152344 62.246094 C 120.136719 62.039062 120.214844 61.851562 120.378906 61.714844 C 135.578125 49.285156 153.628906 40.917969 173.105469 37.722656 C 173.386719 37.675781 173.652344 37.820312 173.769531 38.078125 C 173.886719 38.335938 173.820312 38.628906 173.601562 38.8125 C 161.828125 48.605469 151.539062 59.949219 143.085938 72.507812 C 142.929688 72.746094 142.636719 72.839844 142.367188 72.746094 C 134.542969 70.015625 127.199219 66.648438 120.460938 62.734375 Z M 120.460938 62.734375 " fill-opacity="1" fill-rule="evenodd"/></g></svg>