<svg xmlns="http://www.w3.org/2000/svg" xmlns:xlink="http://www.w3.org/1999/xlink" width="500" zoomAndPan="magnify" viewBox="0 0 375 374.999991" height="500" preserveAspectRatio="xMidYMid meet" version="1.0"><defs><clipPath id="a073e704ac"><path d="M 77.230469 324 L 293 324 L 293 345.75 L 77.230469 345.75 Z M 77.230469 324 " clip-rule="nonzero"/></clipPath><clipPath id="44ed6316a4"><path d="M 124 37.5 L 218 37.5 L 218 90 L 124 90 Z M 124 37.5 " clip-rule="nonzero"/></clipPath><clipPath id="c7ca63de06"><path d="M 248 191 L 337.480469 191 L 337.480469 247 L 248 247 Z M 248 191 " clip-rule="nonzero"/></clipPath></defs><rect x="-37.5" width="450" fill="#ffffff" y="-37.499999" height="449.999989" fill-opacity="1"/><rect x="-37.5" width="450" fill="#ffffff" y="-37.499999" height="449.999989" fill-opacity="1"/><g clip-path="url(#a073e704ac)"><path fill="#cb6ce6" d="M 292.253906 324.945312 L 292.253906 332.722656 C 292.253906 339.984375 286.339844 345.894531 279.078125 345.894531 L 90.40625 345.894531 C 83.144531 345.894531 77.230469 339.984375 77.230469 332.722656 L 77.230469 324.945312 Z M 292.253906 324.945312 " fill-opacity="1" fill-rule="nonzero"/></g><path fill="#cb6ce6" d="M 219.894531 200.085938 L 151.199219 200.085938 C 151.839844 199.507812 152.546875 198.863281 153.125 198.222656 C 153.191406 198.15625 153.253906 198.09375 153.253906 198.027344 C 158.84375 192.246094 161.671875 186.011719 163.023438 180.742188 C 166.171875 182.476562 169.511719 183.890625 173.046875 184.984375 C 177.351562 186.332031 181.402344 186.976562 185.128906 186.976562 C 185.769531 186.976562 186.414062 186.976562 186.992188 186.910156 C 190.398438 186.71875 193.804688 186.140625 197.144531 185.238281 C 200.550781 184.339844 203.765625 183.121094 206.785156 181.640625 C 208.390625 185.753906 211.476562 192.4375 215.652344 197.257812 C 216.296875 198.347656 217.453125 199.121094 218.738281 199.183594 C 219.1875 199.507812 219.507812 199.828125 219.894531 200.085938 Z M 219.894531 200.085938 " fill-opacity="1" fill-rule="nonzero"/><path fill="#cb6ce6" d="M 231.203125 113.910156 C 231.203125 114.421875 231.332031 114.9375 231.527344 115.386719 C 231.460938 118.984375 231.140625 122.777344 230.625 126.570312 C 229.46875 134.921875 227.089844 143.917969 223.621094 153.171875 C 219.121094 165.191406 208.585938 174.445312 195.347656 177.914062 C 192.453125 178.683594 189.5625 179.136719 186.605469 179.328125 C 183.328125 179.519531 179.539062 179.007812 175.359375 177.722656 C 161.414062 173.414062 150.683594 163.199219 146.570312 150.410156 C 144.066406 142.632812 142.203125 134.472656 140.980469 129.011719 C 140.789062 128.046875 140.59375 127.148438 140.335938 126.183594 C 140.335938 126.054688 140.273438 125.992188 140.273438 125.863281 C 139.824219 124.125 139.4375 122.519531 138.921875 121.042969 C 136.804688 114.230469 137.382812 104.65625 140.789062 93.34375 C 142.328125 88.203125 144.066406 83.707031 145.351562 80.683594 C 149.914062 83.128906 154.605469 83.960938 158.910156 83.960938 C 168.484375 83.960938 176.261719 79.785156 176.773438 79.527344 C 176.839844 79.527344 176.902344 79.464844 176.902344 79.464844 C 179.472656 77.921875 182.878906 76.507812 186.925781 75.289062 C 192.324219 73.679688 198.109375 73.296875 204.085938 74.066406 C 205.5 74.257812 206.976562 74.386719 208.390625 74.386719 L 208.519531 74.386719 C 211.796875 74.386719 214.945312 73.550781 217.515625 71.945312 C 218.671875 75.414062 220.34375 78.691406 222.464844 81.714844 C 224.84375 85.183594 226.835938 89.230469 228.3125 93.667969 C 228.3125 93.667969 228.3125 93.730469 228.3125 93.730469 C 230.175781 99.449219 231.203125 105.746094 231.398438 112.496094 C 231.269531 112.945312 231.203125 113.394531 231.203125 113.910156 Z M 231.203125 113.910156 " fill-opacity="1" fill-rule="nonzero"/><g clip-path="url(#44ed6316a4)"><path fill="#cb6ce6" d="M 216.359375 62.691406 C 216.359375 62.691406 216.296875 62.757812 216.359375 62.691406 C 214.945312 65.132812 211.925781 66.742188 208.582031 66.742188 C 208.582031 66.742188 208.519531 66.742188 208.519531 66.742188 C 207.425781 66.742188 206.269531 66.675781 205.113281 66.484375 C 198.109375 65.519531 191.234375 66.035156 184.808594 67.960938 C 180.117188 69.3125 176.195312 70.980469 173.046875 72.910156 C 171.953125 73.488281 157.175781 80.8125 145.992188 72.136719 C 145.09375 71.433594 143.9375 71.175781 142.84375 71.433594 C 141.75 71.6875 140.789062 72.394531 140.273438 73.425781 C 140.144531 73.679688 137.125 79.722656 134.425781 88.074219 C 131.726562 87.882812 128.964844 88.203125 126.394531 89.039062 C 125.75 89.230469 125.109375 89.488281 124.527344 89.746094 C 125.8125 81.265625 130.828125 75.867188 130.890625 75.800781 C 132.242188 74.386719 132.304688 72.203125 131.019531 70.726562 C 128.0625 67.253906 127.871094 63.847656 128.386719 61.472656 C 129.605469 61.855469 131.019531 62.179688 132.691406 62.113281 C 137.832031 61.984375 142.972656 58.902344 147.984375 52.859375 C 149.527344 51.640625 157.945312 45.085938 169.128906 40.972656 C 184.933594 35.1875 198.625 36.792969 209.742188 45.792969 C 211.667969 47.65625 216.425781 53.179688 217.128906 58.195312 C 217.324219 59.863281 217.066406 61.34375 216.359375 62.691406 Z M 216.359375 62.691406 " fill-opacity="1" fill-rule="nonzero"/></g><path fill="#cb6ce6" d="M 131.664062 123.292969 C 131.664062 123.355469 131.726562 123.417969 131.726562 123.484375 C 124.273438 122.90625 118.617188 116.609375 118.875 109.023438 C 119.003906 105.363281 120.480469 102.019531 123.117188 99.449219 C 123.117188 99.449219 123.179688 99.386719 123.179688 99.386719 C 124.722656 97.90625 126.648438 96.75 128.707031 96.109375 C 129.863281 95.722656 131.082031 95.53125 132.242188 95.464844 C 129.542969 106.648438 129.347656 115.964844 131.664062 123.292969 Z M 131.664062 123.292969 " fill-opacity="1" fill-rule="nonzero"/><path fill="#cb6ce6" d="M 245.019531 80.621094 C 244.636719 84.15625 243.863281 86.019531 243.285156 86.917969 C 242.964844 87.433594 242.769531 88.011719 242.707031 88.652344 C 242.066406 88.460938 241.359375 88.332031 240.652344 88.203125 C 238.53125 87.882812 236.472656 87.820312 234.417969 88.140625 C 232.875 84.21875 230.945312 80.558594 228.699219 77.34375 C 226.128906 73.617188 224.390625 69.441406 223.492188 65.132812 C 224.070312 63.847656 224.457031 62.433594 224.585938 61.019531 C 228.3125 61.019531 234.609375 61.792969 239.6875 66.546875 C 243.671875 70.210938 245.597656 75.351562 245.019531 80.621094 Z M 245.019531 80.621094 " fill-opacity="1" fill-rule="nonzero"/><path fill="#cb6ce6" d="M 251.253906 109.539062 C 251.253906 116.863281 245.664062 122.839844 238.53125 123.484375 C 238.851562 120.269531 239.042969 117.1875 238.980469 114.101562 L 239.042969 113.332031 C 239.109375 112.816406 239.042969 112.238281 238.914062 111.789062 C 238.789062 106.070312 238.015625 100.605469 236.730469 95.464844 C 237.628906 95.464844 238.53125 95.464844 239.429688 95.660156 C 241.292969 95.980469 243.027344 96.621094 244.570312 97.585938 C 244.570312 97.585938 244.636719 97.652344 244.636719 97.652344 C 248.8125 100.285156 251.253906 104.71875 251.253906 109.539062 Z M 251.253906 109.539062 " fill-opacity="1" fill-rule="nonzero"/><g clip-path="url(#c7ca63de06)"><path fill="#cb6ce6" d="M 330.230469 191.152344 L 255.6875 191.152344 C 251.703125 191.152344 248.425781 194.429688 248.425781 198.414062 L 248.425781 203.746094 C 248.425781 203.8125 248.425781 203.8125 248.425781 203.875 C 248.425781 203.941406 248.425781 203.941406 248.425781 204.003906 L 248.425781 238.769531 C 248.425781 242.753906 251.703125 246.03125 255.6875 246.03125 L 330.230469 246.03125 C 334.214844 246.03125 337.492188 242.753906 337.492188 238.769531 L 337.492188 198.414062 C 337.492188 194.363281 334.214844 191.152344 330.230469 191.152344 Z M 277.085938 231.574219 C 278.628906 232.988281 278.757812 235.363281 277.34375 236.90625 C 276.574219 237.742188 275.546875 238.128906 274.515625 238.128906 C 273.617188 238.128906 272.71875 237.804688 271.945312 237.164062 L 254.46875 221.355469 C 253.695312 220.648438 253.246094 219.621094 253.246094 218.527344 C 253.246094 217.433594 253.695312 216.40625 254.46875 215.699219 L 271.945312 199.890625 C 273.488281 198.476562 275.867188 198.605469 277.28125 200.148438 C 278.695312 201.691406 278.566406 204.070312 277.023438 205.484375 L 262.628906 218.527344 Z M 298.742188 200.214844 L 294.695312 237.742188 C 294.503906 239.671875 292.832031 241.148438 290.902344 241.148438 C 290.773438 241.148438 290.648438 241.148438 290.519531 241.148438 C 288.460938 240.957031 286.917969 239.027344 287.175781 236.972656 L 291.226562 199.441406 C 291.417969 197.386719 293.347656 195.84375 295.402344 196.101562 C 297.457031 196.230469 298.9375 198.09375 298.742188 200.214844 Z M 331.390625 221.355469 L 313.910156 237.164062 C 313.203125 237.804688 312.304688 238.128906 311.339844 238.128906 C 310.3125 238.128906 309.28125 237.742188 308.511719 236.90625 C 307.097656 235.363281 307.226562 232.988281 308.769531 231.574219 L 323.164062 218.527344 L 308.769531 205.484375 C 307.226562 204.070312 307.097656 201.691406 308.511719 200.148438 C 309.925781 198.605469 312.304688 198.476562 313.84375 199.890625 L 331.324219 215.699219 C 332.097656 216.40625 332.546875 217.433594 332.546875 218.527344 C 332.675781 219.621094 332.222656 220.648438 331.390625 221.355469 Z M 331.390625 221.355469 " fill-opacity="1" fill-rule="nonzero"/></g><path fill="#cb6ce6" d="M 255.6875 253.613281 C 247.460938 253.613281 240.84375 246.933594 240.84375 238.769531 L 240.84375 207.667969 L 95.738281 207.667969 C 92.460938 207.667969 89.441406 208.953125 87.386719 211.203125 C 85.652344 213.066406 84.878906 215.378906 85.070312 217.757812 L 93.363281 317.363281 L 276.1875 317.363281 L 281.457031 253.613281 Z M 232.488281 268.652344 C 232.488281 272.636719 229.210938 275.914062 225.226562 275.914062 L 221.242188 275.914062 C 220.859375 276.878906 220.472656 277.839844 220.085938 278.804688 L 222.851562 281.570312 C 225.675781 284.394531 225.675781 289.023438 222.851562 291.851562 L 214.175781 300.527344 C 211.347656 303.355469 206.71875 303.355469 203.894531 300.527344 L 201.066406 297.699219 C 200.101562 298.148438 199.136719 298.535156 198.171875 298.855469 L 198.171875 302.839844 C 198.171875 306.886719 194.894531 310.101562 190.910156 310.101562 L 178.636719 310.101562 C 174.589844 310.101562 171.375 306.824219 171.375 302.839844 L 171.375 298.984375 C 170.414062 298.597656 169.449219 298.210938 168.484375 297.828125 L 165.65625 300.65625 C 162.828125 303.480469 158.203125 303.480469 155.375 300.65625 L 146.636719 291.914062 C 143.808594 289.085938 143.808594 284.460938 146.636719 281.632812 L 149.398438 278.871094 C 148.949219 277.90625 148.5625 276.941406 148.242188 275.976562 L 144.257812 275.976562 C 140.273438 275.976562 136.996094 272.699219 136.996094 268.714844 L 136.996094 256.441406 C 136.996094 252.394531 140.273438 249.179688 144.257812 249.179688 L 148.242188 249.179688 C 148.628906 248.21875 149.011719 247.253906 149.398438 246.289062 L 146.636719 243.460938 C 143.808594 240.632812 143.808594 236.007812 146.636719 233.179688 L 155.3125 224.441406 C 156.660156 223.089844 158.523438 222.320312 160.453125 222.320312 C 162.378906 222.320312 164.242188 223.089844 165.59375 224.441406 L 168.421875 227.265625 C 169.382812 226.816406 170.347656 226.433594 171.3125 226.109375 L 171.3125 222.125 C 171.3125 218.140625 174.589844 214.863281 178.574219 214.863281 L 190.847656 214.863281 C 194.894531 214.863281 198.109375 218.140625 198.109375 222.125 L 198.109375 226.109375 C 199.074219 226.496094 200.039062 226.882812 201 227.265625 L 203.828125 224.441406 C 205.179688 223.089844 207.042969 222.320312 208.96875 222.320312 C 210.898438 222.320312 212.761719 223.089844 214.109375 224.441406 L 222.785156 233.117188 C 225.613281 235.941406 225.613281 240.570312 222.785156 243.398438 L 220.023438 246.226562 C 220.472656 247.1875 220.859375 248.152344 221.179688 249.117188 L 225.164062 249.117188 C 229.210938 249.117188 232.425781 252.394531 232.425781 256.378906 L 232.425781 268.652344 Z M 232.488281 268.652344 " fill-opacity="1" fill-rule="nonzero"/><path fill="#cb6ce6" d="M 220.988281 256.636719 C 217.902344 256.636719 215.203125 254.707031 214.109375 251.816406 C 213.789062 250.980469 213.46875 250.082031 213.082031 249.246094 C 211.796875 246.480469 212.375 243.140625 214.496094 240.957031 L 217.257812 238.191406 L 208.96875 229.902344 L 206.207031 232.664062 C 204.019531 234.851562 200.742188 235.363281 197.917969 234.078125 C 197.082031 233.695312 196.246094 233.308594 195.347656 233.050781 C 192.453125 232.023438 190.527344 229.257812 190.527344 226.175781 L 190.527344 222.320312 L 178.832031 222.320312 L 178.832031 226.175781 C 178.832031 229.195312 176.902344 231.957031 174.011719 233.050781 C 173.175781 233.371094 172.277344 233.695312 171.441406 234.078125 C 168.675781 235.363281 165.335938 234.785156 163.152344 232.664062 L 160.386719 229.902344 L 152.097656 238.191406 L 154.859375 240.957031 C 157.046875 243.140625 157.558594 246.417969 156.273438 249.246094 C 155.890625 250.082031 155.503906 250.914062 155.246094 251.816406 C 154.21875 254.707031 151.453125 256.636719 148.371094 256.636719 L 144.515625 256.636719 L 144.515625 268.332031 L 148.371094 268.332031 C 151.453125 268.332031 154.152344 270.257812 155.246094 273.152344 C 155.566406 273.984375 155.890625 274.886719 156.273438 275.722656 C 157.558594 278.484375 156.980469 281.824219 154.859375 284.011719 L 152.097656 286.773438 L 160.386719 295.0625 L 163.152344 292.300781 C 165.335938 290.117188 168.613281 289.601562 171.441406 290.886719 C 172.277344 291.273438 173.109375 291.65625 174.011719 291.914062 C 176.902344 292.941406 178.832031 295.707031 178.832031 298.792969 L 178.832031 302.648438 L 190.527344 302.648438 L 190.527344 298.792969 C 190.527344 295.707031 192.453125 293.007812 195.347656 291.914062 C 196.179688 291.59375 197.082031 291.273438 197.917969 290.886719 C 200.679688 289.601562 204.019531 290.179688 206.207031 292.300781 L 208.96875 295.0625 L 217.257812 286.773438 L 214.496094 284.011719 C 212.3125 281.824219 211.796875 278.546875 213.082031 275.722656 C 213.46875 274.886719 213.851562 274.050781 214.109375 273.152344 C 215.140625 270.257812 217.902344 268.332031 220.988281 268.332031 L 224.84375 268.332031 L 224.84375 256.636719 Z M 184.742188 284.652344 C 172.53125 284.652344 162.574219 274.691406 162.574219 262.484375 C 162.574219 250.273438 172.53125 240.3125 184.742188 240.3125 C 196.953125 240.3125 206.914062 250.273438 206.914062 262.484375 C 206.914062 274.691406 196.953125 284.652344 184.742188 284.652344 Z M 184.742188 284.652344 " fill-opacity="1" fill-rule="nonzero"/><path fill="#cb6ce6" d="M 199.265625 262.484375 C 199.265625 270.515625 192.710938 277.070312 184.679688 277.070312 C 176.644531 277.070312 170.089844 270.515625 170.089844 262.484375 C 170.089844 254.449219 176.644531 247.894531 184.679688 247.894531 C 192.777344 247.960938 199.265625 254.449219 199.265625 262.484375 Z M 199.265625 262.484375 " fill-opacity="1" fill-rule="nonzero"/></svg>